<?xml version="1.0" encoding="utf-8"?>
<!-- Svg Vector Icons : http://www.onlinewebfonts.com/icon -->
<!DOCTYPE svg PUBLIC "-//W3C//DTD SVG 1.1//EN" "http://www.w3.org/Graphics/SVG/1.1/DTD/svg11.dtd">
<svg version="1.1" xmlns="http://www.w3.org/2000/svg" xmlns:xlink="http://www.w3.org/1999/xlink" x="0px" y="0px" viewBox="0 0 1000 1000" enable-background="new 0 0 1000 1000" xml:space="preserve">
<metadata> Svg Vector Icons : http://www.onlinewebfonts.com/icon </metadata>
<g><path d="M500,40.6c253.3,0,459.4,206.1,459.4,459.4S753.3,959.4,500,959.4S40.6,753.3,40.6,500S246.7,40.6,500,40.6 M500,10C229.4,10,10,229.4,10,500c0,270.6,219.4,490,490,490c270.6,0,490-219.4,490-490C990,229.4,770.6,10,500,10L500,10z M273.1,300.4c9-7.6,20.9-11.2,32.6-11.1c48.8,0,97.6,0,146.5,0c4.4,0,8.9-0.1,13.3,0.4c13.6,1.1,26.5,8.4,34.6,19.4c6.1-8.2,14.8-14.4,24.6-17.4c6.9-2.2,14.2-2.4,21.3-2.4c49.8,0,99.6-0.1,149.4,0c11.6,0.1,23.3,3.9,32.1,11.5c10.7,8.7,16.9,22.2,17.6,35.8v286.9c-0.5,13.9-6.8,27.6-17.6,36.4c-8.9,7.6-20.5,11.5-32.1,11.5c-52,0.1-104-0.1-156,0.1c-12-0.1-23.4,7.8-27.5,19c-2.1,4.7-1,10.1-3.2,14.8c-2.6,5.2-10.1,7-14.6,3.2c-3.4-2.5-4-6.9-4.3-10.7c-0.7-11.2-9.1-21.2-19.6-24.7c-6.1-2.1-12.6-1.6-18.9-1.7c-48.8,0-97.7,0.1-146.5,0c-11.6,0-23.2-3.9-32.1-11.5c-10.8-8.9-17.2-22.5-17.6-36.4V336.8C255.6,322.9,262.1,309.2,273.1,300.4L273.1,300.4z M278.4,324.1c-3.3,5.6-3.9,12.2-3.8,18.7c0,92.5,0,185,0,277.6c-0.1,7.3,1.9,14.9,6.6,20.6c5.8,7.4,15.3,11.2,24.5,11c49.1,0,98.3,0,147.4,0c7.4,0,15-0.1,22,2.3c5.4,1.5,10.3,4.3,14.9,7.4c-0.1-107.6,0-215.2-0.1-322.8c0.3-8.9-3.8-17.7-10.7-23.2c-5.6-4.7-13.1-6.7-20.4-6.7c-51.4,0-102.7-0.1-154,0C294.1,308.8,283.5,314.6,278.4,324.1L278.4,324.1z M520.7,315.7c-6.9,5.6-11,14.4-10.7,23.2c-0.1,107.6,0,215.2-0.1,322.8c8.5-6.1,18.7-9.6,29.2-9.7c52-0.1,104.1,0.1,156.1-0.1c10.8,0.2,21.6-5.8,26.6-15.6c2.9-5.1,3.6-11.1,3.6-16.9c0-93.2,0-186.3,0-279.5c0.4-11.3-5.8-22.5-16-27.6c-5.5-2.9-11.8-3.4-17.9-3.3c-50.1,0-100.2,0-150.4,0C533.8,308.9,526.4,310.9,520.7,315.7L520.7,315.7z M447.4,405.7c0-6.3-5.1-11.5-11.5-11.5H328.7c-6.3,0-11.5,5.1-11.5,11.5c0,6.3,5.1,11.5,11.5,11.5h107.2C442.2,417.2,447.4,412.1,447.4,405.7z M447.4,472.7c0-6.3-5.1-11.5-11.5-11.5H328.7c-6.3,0-11.5,5.1-11.5,11.5c0,6.3,5.1,11.5,11.5,11.5h107.2C442.2,484.2,447.4,479.1,447.4,472.7z M447.4,548.3c0-6.3-5.1-11.5-11.5-11.5H328.7c-6.3,0-11.5,5.1-11.5,11.5s5.1,11.5,11.5,11.5h107.2C442.2,559.8,447.4,554.7,447.4,548.3z M682.8,405.7c0-6.3-5.1-11.5-11.5-11.5H564.1c-6.3,0-11.5,5.1-11.5,11.5c0,6.3,5.1,11.5,11.5,11.5h107.2C677.7,417.2,682.8,412.1,682.8,405.7z M682.8,472.7c0-6.3-5.1-11.5-11.5-11.5H564.1c-6.3,0-11.5,5.1-11.5,11.5c0,6.3,5.1,11.5,11.5,11.5h107.2C677.7,484.2,682.8,479.1,682.8,472.7z M682.8,548.3c0-6.3-5.1-11.5-11.5-11.5H564.1c-6.3,0-11.5,5.1-11.5,11.5s5.1,11.5,11.5,11.5h107.2C677.7,559.8,682.8,554.7,682.8,548.3z"/></g>
</svg>